<?xml version="1.0" encoding="utf-8"?>
<!-- Generator: Adobe Illustrator 26.5.0, SVG Export Plug-In . SVG Version: 6.00 Build 0)  -->
<svg version="1.1" id="Layer_1" xmlns="http://www.w3.org/2000/svg" xmlns:xlink="http://www.w3.org/1999/xlink" x="0px" y="0px"
	 viewBox="0 0 29 26.9" enable-background="new 0 0 29 26.9" xml:space="preserve">
<path fill="#FFFFFF" d="M-152.8-158.1"/>
<g>
	<path fill="none" stroke="#513F28" stroke-width="1.5" stroke-miterlimit="10" d="M4.2,6.8H3.3c-1.4,0-2.5-1.1-2.5-2.5V3.3
		c0-1.4,1.1-2.5,2.5-2.5h0.9c1.4,0,2.5,1.1,2.5,2.5v0.9C6.8,5.7,5.7,6.8,4.2,6.8z"/>
	<path fill="none" stroke="#513F28" stroke-width="1.5" stroke-miterlimit="10" d="M4.2,26.1H3.3c-1.4,0-2.5-1.1-2.5-2.5v-0.9
		c0-1.4,1.1-2.5,2.5-2.5h0.9c1.4,0,2.5,1.1,2.5,2.5v0.9C6.8,25,5.7,26.1,4.2,26.1z"/>
	<path fill="none" stroke="#513F28" stroke-width="1.5" stroke-miterlimit="10" d="M4.2,16.5H3.3c-1.4,0-2.5-1.1-2.5-2.5V13
		c0-1.4,1.1-2.5,2.5-2.5h0.9c1.4,0,2.5,1.1,2.5,2.5v0.9C6.8,15.3,5.7,16.5,4.2,16.5z"/>
	<path fill="none" stroke="#513F28" stroke-width="1.5" stroke-miterlimit="10" d="M25.7,6.8H11.8c-1.4,0-2.5-1.1-2.5-2.5V3.3
		c0-1.4,1.1-2.5,2.5-2.5h13.9c1.4,0,2.5,1.1,2.5,2.5v0.9C28.2,5.7,27.1,6.8,25.7,6.8z"/>
	<path fill="none" stroke="#513F28" stroke-width="1.5" stroke-miterlimit="10" d="M25.7,26.1H11.8c-1.4,0-2.5-1.1-2.5-2.5v-0.9
		c0-1.4,1.1-2.5,2.5-2.5h13.9c1.4,0,2.5,1.1,2.5,2.5v0.9C28.2,25,27.1,26.1,25.7,26.1z"/>
	<path fill="none" stroke="#513F28" stroke-width="1.5" stroke-miterlimit="10" d="M25.7,16.5H11.8c-1.4,0-2.5-1.1-2.5-2.5V13
		c0-1.4,1.1-2.5,2.5-2.5h13.9c1.4,0,2.5,1.1,2.5,2.5v0.9C28.2,15.3,27.1,16.5,25.7,16.5z"/>
</g>
<g>
	<g>
		<path fill="#513F28" d="M-20.8-0.9c0.5,0,0.9,0.2,1.2,0.5l6.5,7.2c0.3,0.3,0.4,0.7,0.4,1.1v16c0,0.9-0.7,1.6-1.6,1.6h-13.4
			c-0.9,0-1.6-0.7-1.6-1.6V8.2c0-0.4,0.2-0.8,0.4-1.1l6.9-7.4C-21.7-0.7-21.2-0.9-20.8-0.9 M-20.8-2.4c-0.8,0-1.7,0.3-2.3,1L-29.9,6
			c-0.5,0.6-0.8,1.3-0.8,2.1V24c0,1.7,1.4,3.1,3.1,3.1h13.4c1.7,0,3.1-1.4,3.1-3.1V8c0-0.8-0.3-1.5-0.8-2.1l-6.5-7.2
			C-19.1-2-19.9-2.4-20.8-2.4L-20.8-2.4z"/>
	</g>
	
		<line fill="none" stroke="#513F28" stroke-width="1.5" stroke-linecap="round" stroke-linejoin="round" stroke-miterlimit="10" x1="-25.8" y1="8.9" x2="-15.8" y2="8.9"/>
	
		<line fill="none" stroke="#513F28" stroke-width="1.5" stroke-linecap="round" stroke-linejoin="round" stroke-miterlimit="10" x1="-25.5" y1="21.1" x2="-15.5" y2="21.1"/>
	
		<line fill="none" stroke="#513F28" stroke-width="1.5" stroke-linecap="round" stroke-linejoin="round" stroke-miterlimit="10" x1="-25.5" y1="15.1" x2="-15.5" y2="15.1"/>
</g>
<g>
</g>
<g>
</g>
<g>
</g>
<g>
</g>
<g>
</g>
<g>
</g>
<g>
</g>
<g>
</g>
<g>
</g>
<g>
</g>
<g>
</g>
</svg>
