<?xml version="1.0" encoding="utf-8"?>
<!-- Generator: Adobe Illustrator 26.5.0, SVG Export Plug-In . SVG Version: 6.00 Build 0)  -->
<svg version="1.1" id="Layer_1" xmlns="http://www.w3.org/2000/svg" xmlns:xlink="http://www.w3.org/1999/xlink" x="0px" y="0px"
	 viewBox="0 0 19.6 29.5" enable-background="new 0 0 19.6 29.5" xml:space="preserve">
<g>
	<g>
		<path fill="#513F28" d="M10,1.5c0.5,0,0.9,0.2,1.2,0.5l6.5,7.2c0.3,0.3,0.4,0.7,0.4,1.1v16c0,0.9-0.7,1.6-1.6,1.6H3.1
			c-0.9,0-1.6-0.7-1.6-1.6V10.5c0-0.4,0.2-0.8,0.4-1.1L8.8,2C9.1,1.7,9.5,1.5,10,1.5 M10,0C9.1,0,8.3,0.3,7.7,1L0.8,8.4
			C0.3,9,0,9.7,0,10.5v15.9c0,1.7,1.4,3.1,3.1,3.1h13.4c1.7,0,3.1-1.4,3.1-3.1v-16c0-0.8-0.3-1.5-0.8-2.1L12.3,1
			C11.7,0.3,10.8,0,10,0L10,0z"/>
	</g>
	
		<line fill="none" stroke="#513F28" stroke-width="1.5" stroke-linecap="round" stroke-linejoin="round" stroke-miterlimit="10" x1="5" y1="11.3" x2="15" y2="11.3"/>
	
		<line fill="none" stroke="#513F28" stroke-width="1.5" stroke-linecap="round" stroke-linejoin="round" stroke-miterlimit="10" x1="5.3" y1="23.5" x2="15.2" y2="23.5"/>
	
		<line fill="none" stroke="#513F28" stroke-width="1.5" stroke-linecap="round" stroke-linejoin="round" stroke-miterlimit="10" x1="5.3" y1="17.5" x2="15.2" y2="17.5"/>
</g>
</svg>
